<?xml version="1.0" encoding="utf-8"?>
<!-- Uploaded to: SVG Repo, www.svgrepo.com, Generator: SVG Repo Mixer Tools -->
<svg width="800px" height="800px" viewBox="0 0 1024 1024" fill="#000000" class="icon"  version="1.1" xmlns="http://www.w3.org/2000/svg"><path d="M328.108 580.186c-1.632 0-3.288-0.5-4.708-1.544-82.136-59.95-131.172-156.592-131.172-258.504C192.228 143.818 335.68 0.366 512 0.366c176.312 0 319.772 143.452 319.772 319.772 0 101.904-49.042 198.532-131.188 258.472-3.562 2.624-8.574 1.826-11.18-1.734a8 8 0 0 1 1.746-11.164c78.04-56.958 124.632-148.76 124.632-245.574C815.786 152.63 679.508 16.354 512 16.354c-167.506 0-303.784 136.278-303.784 303.784 0 96.83 46.584 188.638 124.614 245.606a7.99 7.99 0 1 1-4.722 14.442zM951.688 1023.634H72.314a7.992 7.992 0 0 1-7.996-7.994v-111.92c0-68.624 35.544-94.9 101.13-119.416l16.684-6.182c9.462-3.498 20.22-7.462 31.752-11.804 4.106-1.514 8.736 0.532 10.296 4.684a8.02 8.02 0 0 1-4.676 10.306c-11.554 4.34-22.35 8.304-31.836 11.818l-16.628 6.168c-61.47 22.952-90.732 44.438-90.732 104.426v103.926h863.382V903.72c0-59.988-29.258-81.474-90.73-104.426l-18.098-6.712a4272.098 4272.098 0 0 1-29.852-11.086c-4.124-1.546-6.214-6.152-4.688-10.292 1.562-4.136 6.168-6.198 10.308-4.668a6082.09 6082.09 0 0 0 29.758 11.054l18.176 6.712c65.578 24.516 101.114 50.792 101.114 119.416v111.92a7.986 7.986 0 0 1-7.99 7.996z" fill="" /><path d="M328.132 671.246a7.99 7.99 0 0 1-7.994-7.994v-91.06a7.99 7.99 0 0 1 7.994-7.994 7.99 7.99 0 0 1 7.994 7.994v91.06a7.99 7.99 0 0 1-7.994 7.994zM695.872 671.886a7.99 7.99 0 0 1-7.996-7.996V572.16a7.99 7.99 0 0 1 7.996-7.994 7.988 7.988 0 0 1 7.992 7.994v91.73a7.988 7.988 0 0 1-7.992 7.996z" fill="" /><path d="M695.872 623.92h-367.74c-4.418 0-7.994-3.576-7.994-7.994s3.576-7.994 7.994-7.994h367.74c4.418 0 7.992 3.576 7.992 7.994s-3.574 7.994-7.992 7.994zM312.136 671.886a8 8 0 0 1-0.312-15.99l399.724-15.988c4.184-0.498 8.118 3.264 8.304 7.682a8.01 8.01 0 0 1-7.68 8.306l-399.708 15.99h-0.328zM280.166 312.142a7.992 7.992 0 0 1-7.996-7.994c0-123.428 100.414-223.84 223.84-223.84a7.99 7.99 0 0 1 7.994 7.994 7.99 7.99 0 0 1-7.994 7.994c-114.614 0-207.852 93.238-207.852 207.852a7.988 7.988 0 0 1-7.992 7.994zM512.008 735.84c-0.492 0-1-0.046-1.508-0.14l-167.88-31.976a7.996 7.996 0 0 1-6.354-9.354 7.972 7.972 0 0 1 9.352-6.354l167.88 31.976a7.996 7.996 0 0 1-1.49 15.848z" fill="" /><path d="M511.994 735.84a7.998 7.998 0 0 1-1.492-15.848l167.882-31.976c4.418-0.766 8.524 2.044 9.352 6.354a7.994 7.994 0 0 1-6.356 9.354l-167.88 31.976c-0.508 0.092-1.016 0.14-1.506 0.14zM551.972 831.772h-79.944a8.008 8.008 0 0 1-7.15-4.418l-15.988-31.978a7.99 7.99 0 0 1 3.576-10.726 8 8 0 0 1 10.726 3.576l13.78 27.558h70.068l13.77-27.558a8.002 8.002 0 0 1 10.726-3.576 8 8 0 0 1 3.578 10.726l-15.988 31.978a8.02 8.02 0 0 1-7.154 4.418z" fill="" /><path d="M456.04 911.714c-0.992 0-1.998-0.188-2.966-0.562a8.014 8.014 0 0 1-4.458-10.398l31.976-79.944c1.632-4.108 6.34-6.106 10.392-4.464a8.014 8.014 0 0 1 4.458 10.398l-31.978 79.944a8.004 8.004 0 0 1-7.424 5.026zM567.96 911.714a8.02 8.02 0 0 1-7.434-5.028l-31.976-79.944c-1.632-4.092 0.376-8.744 4.464-10.398 4.062-1.624 8.762 0.358 10.398 4.464l31.98 79.944a8.038 8.038 0 0 1-4.468 10.398 8.096 8.096 0 0 1-2.964 0.564zM425.25 991.658a8 8 0 0 1-5.076-1.812l-97.124-79.944a8.024 8.024 0 0 1-2.498-8.71l14.262-42.784-91.748-76.446a8.014 8.014 0 0 1-1.124-11.148l63.954-79.944c2.764-3.418 7.784-4.012 11.242-1.248a8.008 8.008 0 0 1 1.25 11.242l-59.06 73.822L349.24 849.6a8.018 8.018 0 0 1 2.458 8.684l-14.248 42.75 92.886 76.446a8.026 8.026 0 0 1 1.092 11.274 8.018 8.018 0 0 1-6.178 2.904z" fill="" /><path d="M472.036 991.658a7.976 7.976 0 0 1-6.994-4.124L305.156 699.74c-2.146-3.84-0.756-8.712 3.108-10.868a7.996 7.996 0 0 1 10.868 3.124l159.886 287.794c2.146 3.842 0.756 8.712-3.108 10.868-1.228 0.688-2.562 1-3.874 1zM598.75 991.658c-2.308 0-4.59-1-6.184-2.904a8.04 8.04 0 0 1 1.094-11.274l92.886-76.446-14.254-42.75a8.044 8.044 0 0 1 2.464-8.684l89.906-74.914-59.05-73.822a8.018 8.018 0 0 1 1.25-11.242 7.988 7.988 0 0 1 11.238 1.248l63.958 79.944a8.02 8.02 0 0 1-1.124 11.148l-91.746 76.446 14.27 42.784a8.062 8.062 0 0 1-2.496 8.71l-97.122 79.944a8.028 8.028 0 0 1-5.09 1.812z" fill="" /><path d="M551.972 991.658a7.852 7.852 0 0 1-3.872-1 7.996 7.996 0 0 1-3.124-10.868l159.886-287.794c2.156-3.872 7.028-5.262 10.868-3.124 3.872 2.154 5.262 7.028 3.122 10.868l-159.882 287.794a7.996 7.996 0 0 1-6.998 4.124zM408.084 799.794a7.96 7.96 0 0 1-6.816-3.81 7.996 7.996 0 0 1 2.616-10.992l103.926-63.954a7.996 7.996 0 0 1 8.382 13.614l-103.924 63.956a7.91 7.91 0 0 1-4.184 1.186z" fill="" /><path d="M615.926 799.794a7.882 7.882 0 0 1-4.184-1.188l-103.934-63.956a7.996 7.996 0 0 1 8.384-13.614l103.918 63.954a7.986 7.986 0 0 1 2.624 10.992 7.93 7.93 0 0 1-6.808 3.812zM512 991.658a7.99 7.99 0 0 1-7.996-7.994v-111.922a7.988 7.988 0 0 1 7.996-7.992 7.992 7.992 0 0 1 7.996 7.992v111.922a7.992 7.992 0 0 1-7.996 7.994zM472.028 591.944a7.99 7.99 0 0 1-7.994-7.994v-63.956a7.99 7.99 0 0 1 7.994-7.994 7.99 7.99 0 0 1 7.996 7.994v63.956a7.99 7.99 0 0 1-7.996 7.994zM551.972 591.944a7.992 7.992 0 0 1-7.996-7.994v-63.956c0-4.418 3.578-7.994 7.996-7.994s7.992 3.576 7.992 7.994v63.956a7.988 7.988 0 0 1-7.992 7.994z" fill="" /><path d="M472.036 527.988a8.01 8.01 0 0 1-6.252-2.998 8.006 8.006 0 0 1 1.25-11.242l39.972-31.976c3.458-2.764 8.472-2.178 11.242 1.25a8.004 8.004 0 0 1-1.25 11.242l-39.97 31.978a7.992 7.992 0 0 1-4.992 1.746z" fill="" /><path d="M551.972 527.988a7.974 7.974 0 0 1-4.996-1.748l-39.972-31.978a8.01 8.01 0 0 1-1.25-11.242c2.772-3.412 7.792-4.004 11.242-1.25l39.972 31.976a8.024 8.024 0 0 1 1.25 11.242 8.016 8.016 0 0 1-6.246 3zM551.972 480.024a7.992 7.992 0 0 1-7.996-7.996V344.12c0-4.418 3.578-7.994 7.996-7.994s7.992 3.576 7.992 7.994v127.91a7.988 7.988 0 0 1-7.992 7.994zM472.028 480.024a7.99 7.99 0 0 1-7.994-7.996V344.12a7.99 7.99 0 0 1 7.994-7.994 7.99 7.99 0 0 1 7.996 7.994v127.91a7.99 7.99 0 0 1-7.996 7.994z" fill="" /><path d="M432.058 392.086c-26.45 0-47.966-21.516-47.966-47.966 0-26.45 21.516-47.964 47.966-47.964 26.45 0 47.966 21.516 47.966 47.964a7.99 7.99 0 0 1-7.996 7.996 7.99 7.99 0 0 1-7.994-7.996c0-17.634-14.34-31.976-31.976-31.976s-31.978 14.342-31.978 31.976c0 17.636 14.34 31.978 31.978 31.978a7.99 7.99 0 0 1 7.994 7.996 7.99 7.99 0 0 1-7.994 7.992zM591.946 392.086a7.99 7.99 0 0 1-7.996-7.994 7.99 7.99 0 0 1 7.996-7.996c17.64 0 31.976-14.34 31.976-31.978 0-17.634-14.336-31.976-31.976-31.976-17.644 0-31.98 14.342-31.98 31.976 0 4.42-3.574 7.996-7.992 7.996s-7.996-3.576-7.996-7.996c0-26.45 21.516-47.964 47.968-47.964 26.45 0 47.964 21.516 47.964 47.964 0 26.452-21.516 47.968-47.964 47.968z" fill="" /><path d="M591.946 392.086h-7.996a7.992 7.992 0 0 1-7.996-7.994 7.992 7.992 0 0 1 7.996-7.996h7.996a7.988 7.988 0 0 1 7.992 7.996 7.988 7.988 0 0 1-7.992 7.994z" fill="" /><path d="M440.052 392.086h-7.994a7.99 7.99 0 0 1-7.994-7.994 7.99 7.99 0 0 1 7.994-7.996h7.994a7.99 7.99 0 0 1 7.994 7.996 7.99 7.99 0 0 1-7.994 7.994z" fill="" /><path d="M519.996 392.086h-15.99a7.99 7.99 0 0 1-7.994-7.994 7.99 7.99 0 0 1 7.994-7.996h15.99a7.988 7.988 0 0 1 7.992 7.996 7.988 7.988 0 0 1-7.992 7.994z" fill="" /></svg>